<mxfile host="app.diagrams.net" modified="2021-01-23T07:31:41.502Z" agent="5.0 (Macintosh; Intel Mac OS X 10_15_4) AppleWebKit/537.36 (KHTML, like Gecko) Chrome/87.0.4280.141 Safari/537.36" etag="tefrT73ocNIOWgPEMTlC" version="14.2.7" type="github">
  <diagram name="Page-1" id="9f46799a-70d6-7492-0946-bef42562c5a5">
    <mxGraphModel dx="1298" dy="843" grid="1" gridSize="10" guides="1" tooltips="1" connect="1" arrows="1" fold="1" page="1" pageScale="1" pageWidth="1100" pageHeight="850" background="#ffffff" math="0" shadow="0">
      <root>
        <mxCell id="0" />
        <mxCell id="1" parent="0" />
        <mxCell id="tG-4gqByyr5I7aZELPT8-84" style="edgeStyle=orthogonalEdgeStyle;rounded=0;orthogonalLoop=1;jettySize=auto;html=1;endArrow=ERmany;endFill=0;entryX=0;entryY=0.5;entryDx=0;entryDy=0;" edge="1" parent="1" source="tG-4gqByyr5I7aZELPT8-18" target="tG-4gqByyr5I7aZELPT8-81">
          <mxGeometry relative="1" as="geometry">
            <mxPoint x="40" y="360" as="targetPoint" />
          </mxGeometry>
        </mxCell>
        <mxCell id="tG-4gqByyr5I7aZELPT8-18" value="users" style="shape=table;html=1;whiteSpace=wrap;startSize=30;container=1;collapsible=0;childLayout=tableLayout;fixedRows=1;rowLines=0;fontStyle=1;align=center;" vertex="1" parent="1">
          <mxGeometry x="120" y="110" width="220" height="60" as="geometry" />
        </mxCell>
        <mxCell id="tG-4gqByyr5I7aZELPT8-19" value="" style="shape=partialRectangle;html=1;whiteSpace=wrap;collapsible=0;dropTarget=0;pointerEvents=0;fillColor=none;top=0;left=0;bottom=1;right=0;points=[[0,0.5],[1,0.5]];portConstraint=eastwest;" vertex="1" parent="tG-4gqByyr5I7aZELPT8-18">
          <mxGeometry y="30" width="220" height="30" as="geometry" />
        </mxCell>
        <mxCell id="tG-4gqByyr5I7aZELPT8-20" value="id" style="shape=partialRectangle;html=1;whiteSpace=wrap;connectable=0;fillColor=none;top=0;left=0;bottom=0;right=0;overflow=hidden;" vertex="1" parent="tG-4gqByyr5I7aZELPT8-19">
          <mxGeometry width="60" height="30" as="geometry" />
        </mxCell>
        <mxCell id="tG-4gqByyr5I7aZELPT8-21" value="INT" style="shape=partialRectangle;html=1;whiteSpace=wrap;connectable=0;fillColor=none;top=0;left=0;bottom=0;right=0;align=left;spacingLeft=6;overflow=hidden;" vertex="1" parent="tG-4gqByyr5I7aZELPT8-19">
          <mxGeometry x="60" width="160" height="30" as="geometry" />
        </mxCell>
        <mxCell id="tG-4gqByyr5I7aZELPT8-29" value="items" style="shape=table;html=1;whiteSpace=wrap;startSize=30;container=1;collapsible=0;childLayout=tableLayout;fixedRows=1;rowLines=0;fontStyle=1;align=center;" vertex="1" parent="1">
          <mxGeometry x="65" y="275" width="290" height="180" as="geometry" />
        </mxCell>
        <mxCell id="tG-4gqByyr5I7aZELPT8-30" value="" style="shape=partialRectangle;html=1;whiteSpace=wrap;collapsible=0;dropTarget=0;pointerEvents=0;fillColor=none;top=0;left=0;bottom=1;right=0;points=[[0,0.5],[1,0.5]];portConstraint=eastwest;" vertex="1" parent="tG-4gqByyr5I7aZELPT8-29">
          <mxGeometry y="30" width="290" height="30" as="geometry" />
        </mxCell>
        <mxCell id="tG-4gqByyr5I7aZELPT8-31" value="id" style="shape=partialRectangle;html=1;whiteSpace=wrap;connectable=0;fillColor=none;top=0;left=0;bottom=0;right=0;overflow=hidden;" vertex="1" parent="tG-4gqByyr5I7aZELPT8-30">
          <mxGeometry width="135" height="30" as="geometry" />
        </mxCell>
        <mxCell id="tG-4gqByyr5I7aZELPT8-32" value="INT" style="shape=partialRectangle;html=1;whiteSpace=wrap;connectable=0;fillColor=none;top=0;left=0;bottom=0;right=0;align=left;spacingLeft=6;overflow=hidden;" vertex="1" parent="tG-4gqByyr5I7aZELPT8-30">
          <mxGeometry x="135" width="155" height="30" as="geometry" />
        </mxCell>
        <mxCell id="tG-4gqByyr5I7aZELPT8-81" value="" style="shape=partialRectangle;html=1;whiteSpace=wrap;collapsible=0;dropTarget=0;pointerEvents=0;fillColor=none;top=0;left=0;bottom=1;right=0;points=[[0,0.5],[1,0.5]];portConstraint=eastwest;" vertex="1" parent="tG-4gqByyr5I7aZELPT8-29">
          <mxGeometry y="60" width="290" height="30" as="geometry" />
        </mxCell>
        <mxCell id="tG-4gqByyr5I7aZELPT8-82" value="buyer_id" style="shape=partialRectangle;html=1;whiteSpace=wrap;connectable=0;fillColor=none;top=0;left=0;bottom=0;right=0;overflow=hidden;" vertex="1" parent="tG-4gqByyr5I7aZELPT8-81">
          <mxGeometry width="135" height="30" as="geometry" />
        </mxCell>
        <mxCell id="tG-4gqByyr5I7aZELPT8-83" value="INT" style="shape=partialRectangle;html=1;whiteSpace=wrap;connectable=0;fillColor=none;top=0;left=0;bottom=0;right=0;align=left;spacingLeft=6;overflow=hidden;" vertex="1" parent="tG-4gqByyr5I7aZELPT8-81">
          <mxGeometry x="135" width="155" height="30" as="geometry" />
        </mxCell>
        <mxCell id="tG-4gqByyr5I7aZELPT8-33" value="" style="shape=partialRectangle;html=1;whiteSpace=wrap;collapsible=0;dropTarget=0;pointerEvents=0;fillColor=none;top=0;left=0;bottom=1;right=0;points=[[0,0.5],[1,0.5]];portConstraint=eastwest;" vertex="1" parent="tG-4gqByyr5I7aZELPT8-29">
          <mxGeometry y="90" width="290" height="30" as="geometry" />
        </mxCell>
        <mxCell id="tG-4gqByyr5I7aZELPT8-34" value="seller_id" style="shape=partialRectangle;html=1;whiteSpace=wrap;connectable=0;fillColor=none;top=0;left=0;bottom=0;right=0;overflow=hidden;" vertex="1" parent="tG-4gqByyr5I7aZELPT8-33">
          <mxGeometry width="135" height="30" as="geometry" />
        </mxCell>
        <mxCell id="tG-4gqByyr5I7aZELPT8-35" value="INT" style="shape=partialRectangle;html=1;whiteSpace=wrap;connectable=0;fillColor=none;top=0;left=0;bottom=0;right=0;align=left;spacingLeft=6;overflow=hidden;" vertex="1" parent="tG-4gqByyr5I7aZELPT8-33">
          <mxGeometry x="135" width="155" height="30" as="geometry" />
        </mxCell>
        <mxCell id="tG-4gqByyr5I7aZELPT8-74" value="" style="shape=partialRectangle;html=1;whiteSpace=wrap;collapsible=0;dropTarget=0;pointerEvents=0;fillColor=none;top=0;left=0;bottom=1;right=0;points=[[0,0.5],[1,0.5]];portConstraint=eastwest;" vertex="1" parent="tG-4gqByyr5I7aZELPT8-29">
          <mxGeometry y="120" width="290" height="30" as="geometry" />
        </mxCell>
        <mxCell id="tG-4gqByyr5I7aZELPT8-75" value="secondary_category_id" style="shape=partialRectangle;html=1;whiteSpace=wrap;connectable=0;fillColor=none;top=0;left=0;bottom=0;right=0;overflow=hidden;" vertex="1" parent="tG-4gqByyr5I7aZELPT8-74">
          <mxGeometry width="135" height="30" as="geometry" />
        </mxCell>
        <mxCell id="tG-4gqByyr5I7aZELPT8-76" value="INT" style="shape=partialRectangle;html=1;whiteSpace=wrap;connectable=0;fillColor=none;top=0;left=0;bottom=0;right=0;align=left;spacingLeft=6;overflow=hidden;" vertex="1" parent="tG-4gqByyr5I7aZELPT8-74">
          <mxGeometry x="135" width="155" height="30" as="geometry" />
        </mxCell>
        <mxCell id="tG-4gqByyr5I7aZELPT8-36" value="" style="shape=partialRectangle;html=1;whiteSpace=wrap;collapsible=0;dropTarget=0;pointerEvents=0;fillColor=none;top=0;left=0;bottom=1;right=0;points=[[0,0.5],[1,0.5]];portConstraint=eastwest;" vertex="1" parent="tG-4gqByyr5I7aZELPT8-29">
          <mxGeometry y="150" width="290" height="30" as="geometry" />
        </mxCell>
        <mxCell id="tG-4gqByyr5I7aZELPT8-37" value="item_conditon_id" style="shape=partialRectangle;html=1;whiteSpace=wrap;connectable=0;fillColor=none;top=0;left=0;bottom=0;right=0;overflow=hidden;" vertex="1" parent="tG-4gqByyr5I7aZELPT8-36">
          <mxGeometry width="135" height="30" as="geometry" />
        </mxCell>
        <mxCell id="tG-4gqByyr5I7aZELPT8-38" value="INT" style="shape=partialRectangle;html=1;whiteSpace=wrap;connectable=0;fillColor=none;top=0;left=0;bottom=0;right=0;align=left;spacingLeft=6;overflow=hidden;" vertex="1" parent="tG-4gqByyr5I7aZELPT8-36">
          <mxGeometry x="135" width="155" height="30" as="geometry" />
        </mxCell>
        <mxCell id="tG-4gqByyr5I7aZELPT8-41" value="primary_categories" style="shape=table;html=1;whiteSpace=wrap;startSize=30;container=1;collapsible=0;childLayout=tableLayout;fixedRows=1;rowLines=0;fontStyle=1;align=center;" vertex="1" parent="1">
          <mxGeometry x="460" y="130" width="220" height="60" as="geometry" />
        </mxCell>
        <mxCell id="tG-4gqByyr5I7aZELPT8-42" value="" style="shape=partialRectangle;html=1;whiteSpace=wrap;collapsible=0;dropTarget=0;pointerEvents=0;fillColor=none;top=0;left=0;bottom=1;right=0;points=[[0,0.5],[1,0.5]];portConstraint=eastwest;" vertex="1" parent="tG-4gqByyr5I7aZELPT8-41">
          <mxGeometry y="30" width="220" height="30" as="geometry" />
        </mxCell>
        <mxCell id="tG-4gqByyr5I7aZELPT8-43" value="id" style="shape=partialRectangle;html=1;whiteSpace=wrap;connectable=0;fillColor=none;top=0;left=0;bottom=0;right=0;overflow=hidden;" vertex="1" parent="tG-4gqByyr5I7aZELPT8-42">
          <mxGeometry width="60" height="30" as="geometry" />
        </mxCell>
        <mxCell id="tG-4gqByyr5I7aZELPT8-44" value="INT" style="shape=partialRectangle;html=1;whiteSpace=wrap;connectable=0;fillColor=none;top=0;left=0;bottom=0;right=0;align=left;spacingLeft=6;overflow=hidden;" vertex="1" parent="tG-4gqByyr5I7aZELPT8-42">
          <mxGeometry x="60" width="160" height="30" as="geometry" />
        </mxCell>
        <mxCell id="tG-4gqByyr5I7aZELPT8-51" value="secondary_categories" style="shape=table;html=1;whiteSpace=wrap;startSize=30;container=1;collapsible=0;childLayout=tableLayout;fixedRows=1;rowLines=0;fontStyle=1;align=center;" vertex="1" parent="1">
          <mxGeometry x="460" y="260" width="340" height="90" as="geometry" />
        </mxCell>
        <mxCell id="tG-4gqByyr5I7aZELPT8-52" value="" style="shape=partialRectangle;html=1;whiteSpace=wrap;collapsible=0;dropTarget=0;pointerEvents=0;fillColor=none;top=0;left=0;bottom=1;right=0;points=[[0,0.5],[1,0.5]];portConstraint=eastwest;" vertex="1" parent="tG-4gqByyr5I7aZELPT8-51">
          <mxGeometry y="30" width="340" height="30" as="geometry" />
        </mxCell>
        <mxCell id="tG-4gqByyr5I7aZELPT8-53" value="id" style="shape=partialRectangle;html=1;whiteSpace=wrap;connectable=0;fillColor=none;top=0;left=0;bottom=0;right=0;overflow=hidden;" vertex="1" parent="tG-4gqByyr5I7aZELPT8-52">
          <mxGeometry width="150" height="30" as="geometry" />
        </mxCell>
        <mxCell id="tG-4gqByyr5I7aZELPT8-54" value="INT" style="shape=partialRectangle;html=1;whiteSpace=wrap;connectable=0;fillColor=none;top=0;left=0;bottom=0;right=0;align=left;spacingLeft=6;overflow=hidden;" vertex="1" parent="tG-4gqByyr5I7aZELPT8-52">
          <mxGeometry x="150" width="190" height="30" as="geometry" />
        </mxCell>
        <mxCell id="tG-4gqByyr5I7aZELPT8-55" value="" style="shape=partialRectangle;html=1;whiteSpace=wrap;collapsible=0;dropTarget=0;pointerEvents=0;fillColor=none;top=0;left=0;bottom=1;right=0;points=[[0,0.5],[1,0.5]];portConstraint=eastwest;" vertex="1" parent="tG-4gqByyr5I7aZELPT8-51">
          <mxGeometry y="60" width="340" height="30" as="geometry" />
        </mxCell>
        <mxCell id="tG-4gqByyr5I7aZELPT8-56" value="&lt;span&gt;primary_category_id&lt;/span&gt;" style="shape=partialRectangle;html=1;whiteSpace=wrap;connectable=0;fillColor=none;top=0;left=0;bottom=0;right=0;overflow=hidden;fontStyle=0" vertex="1" parent="tG-4gqByyr5I7aZELPT8-55">
          <mxGeometry width="150" height="30" as="geometry" />
        </mxCell>
        <mxCell id="tG-4gqByyr5I7aZELPT8-57" value="INT" style="shape=partialRectangle;html=1;whiteSpace=wrap;connectable=0;fillColor=none;top=0;left=0;bottom=0;right=0;align=left;spacingLeft=6;overflow=hidden;" vertex="1" parent="tG-4gqByyr5I7aZELPT8-55">
          <mxGeometry x="150" width="190" height="30" as="geometry" />
        </mxCell>
        <mxCell id="tG-4gqByyr5I7aZELPT8-65" style="edgeStyle=orthogonalEdgeStyle;rounded=0;orthogonalLoop=1;jettySize=auto;html=1;exitX=0;exitY=0.5;exitDx=0;exitDy=0;entryX=0;entryY=0.5;entryDx=0;entryDy=0;endArrow=ERmany;endFill=0;" edge="1" parent="1" source="tG-4gqByyr5I7aZELPT8-42" target="tG-4gqByyr5I7aZELPT8-55">
          <mxGeometry relative="1" as="geometry" />
        </mxCell>
        <mxCell id="tG-4gqByyr5I7aZELPT8-66" value="item_conditions" style="shape=table;html=1;whiteSpace=wrap;startSize=30;container=1;collapsible=0;childLayout=tableLayout;fixedRows=1;rowLines=0;fontStyle=1;align=center;" vertex="1" parent="1">
          <mxGeometry x="460" y="395" width="220" height="60" as="geometry" />
        </mxCell>
        <mxCell id="tG-4gqByyr5I7aZELPT8-67" value="" style="shape=partialRectangle;html=1;whiteSpace=wrap;collapsible=0;dropTarget=0;pointerEvents=0;fillColor=none;top=0;left=0;bottom=1;right=0;points=[[0,0.5],[1,0.5]];portConstraint=eastwest;" vertex="1" parent="tG-4gqByyr5I7aZELPT8-66">
          <mxGeometry y="30" width="220" height="30" as="geometry" />
        </mxCell>
        <mxCell id="tG-4gqByyr5I7aZELPT8-68" value="id" style="shape=partialRectangle;html=1;whiteSpace=wrap;connectable=0;fillColor=none;top=0;left=0;bottom=0;right=0;overflow=hidden;" vertex="1" parent="tG-4gqByyr5I7aZELPT8-67">
          <mxGeometry width="115" height="30" as="geometry" />
        </mxCell>
        <mxCell id="tG-4gqByyr5I7aZELPT8-69" value="INT" style="shape=partialRectangle;html=1;whiteSpace=wrap;connectable=0;fillColor=none;top=0;left=0;bottom=0;right=0;align=left;spacingLeft=6;overflow=hidden;" vertex="1" parent="tG-4gqByyr5I7aZELPT8-67">
          <mxGeometry x="115" width="105" height="30" as="geometry" />
        </mxCell>
        <mxCell id="tG-4gqByyr5I7aZELPT8-77" style="edgeStyle=orthogonalEdgeStyle;rounded=0;orthogonalLoop=1;jettySize=auto;html=1;entryX=1;entryY=0.5;entryDx=0;entryDy=0;endArrow=ERmany;endFill=0;" edge="1" parent="1" source="tG-4gqByyr5I7aZELPT8-67" target="tG-4gqByyr5I7aZELPT8-36">
          <mxGeometry relative="1" as="geometry" />
        </mxCell>
        <mxCell id="tG-4gqByyr5I7aZELPT8-85" style="edgeStyle=orthogonalEdgeStyle;rounded=0;orthogonalLoop=1;jettySize=auto;html=1;exitX=0;exitY=0.5;exitDx=0;exitDy=0;entryX=1;entryY=0.5;entryDx=0;entryDy=0;endArrow=ERmany;endFill=0;" edge="1" parent="1" source="tG-4gqByyr5I7aZELPT8-52" target="tG-4gqByyr5I7aZELPT8-74">
          <mxGeometry relative="1" as="geometry" />
        </mxCell>
        <mxCell id="tG-4gqByyr5I7aZELPT8-86" style="edgeStyle=orthogonalEdgeStyle;rounded=0;orthogonalLoop=1;jettySize=auto;html=1;entryX=0;entryY=0.5;entryDx=0;entryDy=0;endArrow=ERmany;endFill=0;" edge="1" parent="1" source="tG-4gqByyr5I7aZELPT8-19" target="tG-4gqByyr5I7aZELPT8-33">
          <mxGeometry relative="1" as="geometry" />
        </mxCell>
      </root>
    </mxGraphModel>
  </diagram>
</mxfile>
